<svg data-v-fde0c5aa="" xmlns="http://www.w3.org/2000/svg" viewBox="0 0 300 300" class="iconLeft"><!----><defs data-v-fde0c5aa=""><!----></defs><rect data-v-fde0c5aa="" fill="transparent" x="0" y="0" width="300px" height="300px" class="logo-background-square"></rect><defs data-v-fde0c5aa=""><!----></defs><g data-v-fde0c5aa="" id="1f89d9fa-ffc0-4aa5-ba95-ef6691516d0f" fill="#000000" transform="matrix(2.143771058244998,0,0,2.143771058244998,93.57906579209177,129.2161397334269)"><path d="M4.51 3.72C2.59 3.72 0.85 4.77 0.85 6.64C0.85 8.57 2.14 9.25 4.34 9.80C5.53 10.09 5.89 10.53 5.89 11.03C5.89 11.56 5.36 11.93 4.66 11.93C3.91 11.93 3.16 11.54 3.00 10.63L0.48 10.63C0.63 12.80 2.28 13.78 4.73 13.78C6.68 13.78 8.53 12.80 8.53 10.86C8.53 9.38 7.66 8.32 5.53 7.81C3.93 7.43 3.49 7.06 3.49 6.44C3.49 5.85 3.88 5.57 4.45 5.57C5.28 5.57 5.70 6.10 5.81 6.90L8.33 6.90C8.12 5.11 7.06 3.72 4.51 3.72ZM16.84 9.74C16.84 7.81 15.58 5.91 13.09 5.91C10.60 5.91 9.10 7.69 9.10 9.87C9.10 12.50 10.81 13.78 12.95 13.78C14.87 13.78 16.27 12.82 16.70 11.13L14.22 11.13C14.13 11.70 13.69 12.07 12.98 12.07C12.26 12.07 11.72 11.72 11.59 10.47L16.80 10.47C16.83 10.22 16.84 9.97 16.84 9.74ZM12.96 7.62C13.64 7.62 14.07 8.05 14.21 8.93L11.68 8.93C11.84 8.01 12.31 7.62 12.96 7.62ZM22.92 5.91C22.16 5.91 21.43 6.06 21.01 6.37L20.45 7.20L20.45 6.10L17.93 6.10L17.93 16.32L20.45 16.32L20.45 12.61L20.94 13.41C21.32 13.64 22.05 13.78 22.67 13.78C24.58 13.78 26.21 12.33 26.21 9.67C26.21 7.46 24.95 5.91 22.92 5.91ZM21.98 12.07C21.22 12.07 20.45 11.56 20.45 10.07L20.45 9.74C20.45 8.18 21.13 7.62 22.05 7.62C22.93 7.62 23.63 8.40 23.63 9.80C23.63 11.33 22.96 12.07 21.98 12.07ZM30.90 5.91C28.45 5.91 26.88 7.43 26.88 9.84C26.88 12.24 28.45 13.78 30.90 13.78C33.35 13.78 34.92 12.24 34.92 9.84C34.92 7.43 33.35 5.91 30.90 5.91ZM30.90 12.07C30.00 12.07 29.46 11.33 29.46 9.84C29.46 8.34 30.00 7.62 30.90 7.62C31.79 7.62 32.34 8.34 32.34 9.84C32.34 11.33 31.79 12.07 30.90 12.07ZM39.52 5.91C37.32 5.91 35.59 7.35 35.59 9.93C35.59 12.39 37.21 13.78 39.35 13.78C41.38 13.78 42.88 12.77 43.16 10.84L40.68 10.84C40.54 11.65 40.07 12.07 39.49 12.07C38.64 12.07 38.16 11.37 38.16 9.77C38.16 8.33 38.63 7.62 39.47 7.62C40.10 7.62 40.59 7.98 40.70 8.96L43.13 8.96C43.06 7.28 41.72 5.91 39.52 5.91ZM51.74 7.94C51.55 6.64 50.64 5.91 49.10 5.91C48.41 5.91 47.88 6.06 47.42 6.34L46.75 7.27L46.75 3.22L44.23 3.22L44.23 13.58L46.75 13.58L46.75 10.05C46.75 8.36 47.29 7.62 48.06 7.62C48.82 7.62 49.21 8.04 49.27 8.75C49.29 9.13 49.29 9.53 49.29 9.77L49.29 13.58L51.81 13.58L51.81 9.35C51.81 8.75 51.80 8.32 51.74 7.94ZM54.50 3.07C53.72 3.07 53.20 3.54 53.20 4.30C53.20 5.05 53.72 5.53 54.50 5.53C55.29 5.53 55.80 5.05 55.80 4.30C55.80 3.54 55.29 3.07 54.50 3.07ZM55.76 13.58L55.76 6.10L53.24 6.10L53.24 13.58ZM64.51 3.72C61.89 3.72 59.74 5.46 59.74 8.82C59.74 12.10 61.82 13.78 64.41 13.78C66.84 13.78 68.61 12.59 68.85 10.26L68.87 10.12L66.35 10.12L66.32 10.26C66.11 11.33 65.48 11.93 64.50 11.93C63.38 11.93 62.37 11.10 62.37 8.67C62.37 6.58 63.28 5.57 64.48 5.57C65.51 5.57 66.14 6.06 66.35 7.10L66.37 7.24L68.89 7.24L68.88 7.10C68.68 5.19 67.27 3.72 64.51 3.72ZM73.61 5.91C71.16 5.91 69.59 7.43 69.59 9.84C69.59 12.24 71.16 13.78 73.61 13.78C76.06 13.78 77.63 12.24 77.63 9.84C77.63 7.43 76.06 5.91 73.61 5.91ZM73.61 12.07C72.72 12.07 72.17 11.33 72.17 9.84C72.17 8.34 72.72 7.62 73.61 7.62C74.51 7.62 75.05 8.34 75.05 9.84C75.05 11.33 74.51 12.07 73.61 12.07Z"></path></g><defs data-v-fde0c5aa=""><linearGradient data-v-fde0c5aa="" gradientTransform="rotate(25)" id="11148ec0-38e9-476d-b22c-93a432c91e05" x1="0%" y1="0%" x2="100%" y2="0%"><stop data-v-fde0c5aa="" offset="0%" stop-color="#41E296" stop-opacity="1"></stop><stop data-v-fde0c5aa="" offset="100%" stop-color="#00C4EE" stop-opacity="1"></stop></linearGradient></defs><g data-v-fde0c5aa="" id="0c63a139-79c2-45cf-b659-16fb566502ca" stroke="none" fill="url(#11148ec0-38e9-476d-b22c-93a432c91e05)" transform="matrix(0.05598510945579242,0,0,0.05598510945579242,32.116821446444874,122.01094946703464)"><path d="M552.6 185.7l171.7 178.6c-.9 6.3-.7 12.9.9 19.5 6.7 27.3 34.4 44 61.7 37.3 27.3-6.7 44-34.4 37.3-61.7-6.7-27.2-34.3-43.9-61.5-37.3L585.4 137.5c-14.5-15.1-36.2-21.4-56.6-16.4l-264.5 65.3c-20.4 5-36.7 20.7-42.5 40.8L141.7 504c-1.1 3.8-1.2 7.9-.2 11.7.9 3.8 2.9 7.4 5.7 10.3 5.7 5.9 13.8 8.3 21.8 6.3l7.1-1.8c11.6-2.9 20.8-11.7 24.1-23.2l73.1-252.7c2.3-7.8 8.5-13.8 16.4-15.8l241.1-59.5c7.8-1.8 16.2.6 21.8 6.4zM779 339c13.1 1.7 24.4 11.2 27.7 24.7.4 1.6.7 3.3.8 4.9.2 2 .2 4 0 6-1.3 13.6-10.9 25.4-24.9 28.9-15.3 3.8-30.8-3.9-37.5-17.5-1-2-1.8-4.2-2.4-6.5-4.4-17.6 6.4-35.5 24.1-39.9 4.2-1 8.3-1.2 12.2-.6zM803 773.2l80.1-276.9c1.1-3.9 1.2-8 .3-11.9-1-3.9-2.9-7.5-5.7-10.4-5.7-6-14-8.3-22-6.4l-9.8 2.4c-9.6 2.4-17.3 9.7-20 19.2l-74.2 256.4c-2.2 7.5-8.2 13.2-15.7 15.1l-242.3 59.8c-7.5 1.9-15.5-.5-20.9-6.1L308.4 639.8c1.8-7.6 1.9-15.8-.1-23.9-6.7-27.3-34.4-44-61.7-37.3-27.3 6.7-44 34.4-37.3 61.7 6.1 24.7 29.4 40.8 54 38.6L440 862.7c14.3 14.9 35.6 21 55.6 16.1l265.7-65.6c20-4.8 36-20.2 41.7-40zM241.2 656c-4.5-2.8-8.3-6.7-11-11.4-1.5-2.6-2.7-5.5-3.4-8.5-.1-.3-.2-.7-.2-1-3.7-17.3 7-34.6 24.3-38.9 17.6-4.4 35.5 6.4 39.9 24.1.4 1.7.7 3.4.8 5 1.4 15.9-8.9 30.9-24.9 34.8-9.1 2.2-18.2.5-25.5-4.1z"></path><path d="M482 642.3L386.7 254c-1.7-6.8 11-13 18.7-9.1l18.1 9.2c14.5 7.3 24 18.2 27.1 31.1l94.6 385.4c1.7 6.8-11 13-18.7 9.1l-21.3-10.8c-12.3-6.3-20.5-15.6-23.2-26.6zM374.3 510l-59-240.4c-1-4.2 11.9-9.3 19.1-7.5l16.9 4.3c13.5 3.4 21.9 9.6 23.8 17.5l58.6 238.7c1 4.2-11.9 9.3-19.1 7.5l-19.9-5c-11.6-3-18.7-8.2-20.4-15.1zM657.7 723.4l-59-240.4c-1-4.2 11.9-9.3 19.1-7.5l16.9 4.3c13.5 3.4 21.9 9.6 23.8 17.5L717.1 736c1 4.2-11.9 9.3-19.1 7.5l-19.9-5c-11.6-3.1-18.7-8.3-20.4-15.1zM585 713.8l-95.3-388.2c-1.7-6.8 11-13 18.7-9.1l18.1 9.2c14.5 7.3 24 18.2 27.1 31.1l94.6 385.4c1.7 6.8-11 13-18.7 9.1l-21.3-10.8c-12.3-6.4-20.5-15.8-23.2-26.7z"></path></g><!----></svg>